<svg width="45" height="45" viewBox="0 0 45 45" fill="none" xmlns="http://www.w3.org/2000/svg">
<path d="M26.1982 14.8553C25.6127 16.9088 26.8998 18.4502 28.7549 18.7167L32.9829 19.248C32.7142 25.0789 26.0448 33.8266 18.4391 33.587C16.9937 33.414 16.862 35.6372 18.3176 35.6364C26.8803 35.2937 34.9393 27.4486 35.1993 18.2764C35.1551 17.7958 34.7826 17.4106 34.3036 17.3504L29.0206 16.6748C28.4749 16.5287 27.9515 16.2912 28.2287 15.2564L31.92 3.29277C32.2125 2.13765 33.2931 1.78446 34.1053 2.25522C38.7318 4.69903 41.7947 9.17656 42.3571 14.7692C42.9264 20.4303 40.7364 27.2371 34.0833 34.0798C27.4302 40.9223 20.6906 43.3025 15.0157 42.8925C9.34856 42.483 4.84323 39.5424 2.28743 34.9061C1.87622 33.7957 2.28771 33.0915 3.10468 32.8299L15.2931 28.641C15.9218 28.4634 16.4627 28.9853 16.5414 29.51L16.7767 31.0357C16.9842 32.3919 19.0185 32.0805 18.811 30.7243L18.5681 29.191C18.3351 27.3222 16.8974 26.0753 14.6442 26.7429L2.58219 30.8383C-0.0537691 31.8342 -0.381227 33.8176 0.318116 35.5206C3.03775 41.0647 8.67251 44.5032 14.8638 44.9506C21.2302 45.4106 28.5828 42.6872 35.5559 35.5155C42.529 28.3436 45.0452 20.9163 44.4066 14.5653C43.7679 8.2144 39.983 3.00518 34.6754 0.279764C33.0567 -0.499615 30.6084 0.364825 29.9583 2.68054C28.7088 6.73526 27.4516 10.7984 26.1982 14.8553Z" fill="#044BA8"/>
</svg>
