<svg width="80" height="80" viewBox="0 0 80 80" fill="none" xmlns="http://www.w3.org/2000/svg">
<path d="M17.7789 12.426C15.3065 13.026 13.0226 14.8438 11.8146 17.4237C10.3904 20.6382 10.4004 25.0062 12.2296 30.1042C14.0387 35.1467 14.9935 38.2534 15.9943 40.3094C16.9617 42.3883 18.3843 43.5102 20.4328 43.5102C23.864 43.5102 24.8342 39.7721 25.6549 36.7474C26.2045 35.0837 23.6289 34.3732 23.2477 36.0833C22.7998 38.4054 22.0328 41.0101 20.4328 41.0101C19.1461 41.0007 18.721 40.0198 18.2379 39.2206C17.4096 37.5189 16.4067 34.3375 14.5831 29.2547C12.9076 24.5844 13.0185 20.8689 14.0949 18.4393C15.7063 14.4624 20.6413 13.1891 22.9889 16.3909C23.125 16.5468 23.2791 16.7216 23.4284 16.8914C23.1784 16.8725 22.9408 16.8427 22.7228 16.7889C21.0867 16.358 20.474 18.8338 22.1222 19.2157C25.8412 19.9732 29.1657 19.3621 31.5436 16.3909C34.447 12.9496 38.9946 15.1343 40.4279 18.4393C41.5043 20.8689 41.6249 24.5844 39.9494 29.2547C38.1258 34.3375 37.1131 37.5189 36.2848 39.2206C35.781 40.4607 35.082 41.0101 34.0998 41.0101C32.2843 41.0101 31.9892 38.8119 31.6168 37.365C31.0733 34.8914 29.8039 31.9116 27.2614 31.8475C25.5568 31.8097 25.5568 34.3858 27.2614 34.3475C28.7164 34.3475 28.8616 36.6976 29.1901 37.9827C29.8129 40.6802 30.9949 43.5102 34.0998 43.5102C36.3892 43.5102 37.6758 42.0612 38.5382 40.3094C39.539 38.2534 40.4938 35.1467 42.3029 30.1042C44.1318 25.0062 44.1419 20.6382 42.7179 17.4237C40.3424 12.638 33.2846 10.0197 29.6515 14.7405C28.0412 17.0879 26.4996 16.8732 24.8712 14.7405C22.9121 12.4439 20.2513 11.8261 17.7789 12.426Z" fill="#044BA8"/>
<path d="M56.4819 42.1228C55.7702 44.6191 57.3348 46.4929 59.59 46.8168L64.7296 47.4627C64.403 54.5509 56.2954 65.1849 47.0498 64.8935C45.2927 64.6833 45.1326 67.3859 46.9021 67.3849C57.3112 66.9682 67.1079 57.4315 67.424 46.2816C67.3702 45.6974 66.9173 45.2291 66.3352 45.1559L59.9129 44.3347C59.2496 44.157 58.6133 43.8684 58.9503 42.6104L63.4375 28.0671C63.7932 26.6629 65.1067 26.2336 66.094 26.8058C71.7181 29.7766 75.4414 35.2196 76.1251 42.0182C76.8172 48.9 74.155 57.1744 66.0673 65.4926C57.9797 73.8106 49.7867 76.704 42.8882 76.2055C35.9991 75.7077 30.5223 72.133 27.4154 66.4971C26.9155 65.1472 27.4158 64.2912 28.4089 63.9732L43.2255 58.881C43.9898 58.6651 44.6472 59.2996 44.7429 59.9374L45.0289 61.7921C45.2812 63.4407 47.7541 63.0623 47.5018 61.4136L47.2066 59.5497C46.9233 57.2779 45.1757 55.7622 42.4366 56.5737L27.7737 61.5522C24.5694 62.7628 24.1713 65.1739 25.0215 67.244C28.3275 73.9836 35.1773 78.1636 42.7036 78.7074C50.4428 79.2667 59.3807 75.956 67.8574 67.2378C76.3342 58.5195 79.3929 49.4907 78.6165 41.7703C77.8401 34.05 73.2391 27.7175 66.7871 24.4044C64.8193 23.457 61.8432 24.5078 61.0529 27.3229C59.5339 32.2519 58.0057 37.1911 56.4819 42.1228Z" fill="#044BA8"/>
<path d="M27.4336 1.35828C13.0485 1.35936 1.36047 13.0474 1.35938 27.4325C1.35905 41.8186 13.0475 53.5081 27.4336 53.5092C32.0047 53.5092 36.3535 52.1036 39.6968 50.345L47.2163 51.4267C49.6442 51.7758 51.7692 49.6637 51.4839 47.2396L50.5561 39.3587C52.461 35.6672 53.5084 31.5912 53.5103 27.4325C53.5092 13.0464 41.8197 1.35795 27.4336 1.35828ZM27.4336 3.85817C40.4686 3.85789 51.0093 14.3975 51.0103 27.4325C51.0085 31.3382 50.0356 35.1819 48.1807 38.6189C48.0594 38.8452 48.0108 39.1037 48.0415 39.3587L49.0034 47.5326C49.0839 48.2171 48.2431 49.0474 47.5727 48.951L39.7407 47.8255C39.4678 47.7877 39.1897 47.8397 38.9497 47.9743C35.434 49.9548 31.4687 50.9995 27.4336 51.009C14.3985 51.008 3.85906 40.4674 3.85936 27.4324C3.85936 13.0926 16.471 4.19124 27.4336 3.85817Z" fill="#044BA8"/>
</svg>
