<svg width="80" height="80" viewBox="0 0 80 80" fill="none" xmlns="http://www.w3.org/2000/svg">
<path d="M8.60727 1.25208C4.55408 1.25208 1.25195 4.55423 1.25195 8.60739V44.3667C1.25195 48.4199 4.55408 51.7221 8.60727 51.7221H9.17701V55.8521C9.17701 61.1931 15.2226 61.5265 17.9139 58.3658L23.6627 51.7221H57.637C61.6902 51.7221 64.9923 48.4199 64.9923 44.3667V8.60739C64.9923 4.55423 61.6902 1.25208 57.637 1.25208H8.60727ZM8.60727 3.75601H57.637C60.3463 3.75601 62.4884 5.89808 62.4884 8.60739V44.3667C62.4884 47.0761 60.3463 49.2181 57.637 49.2181H23.0905C22.7272 49.2183 22.3819 49.3762 22.1442 49.6509L15.9993 56.7544C14.3664 58.5605 11.6809 58.6642 11.6809 55.8545V50.4725C11.6822 49.7802 11.1213 49.2182 10.429 49.2181H8.60727C5.89796 49.2181 3.75589 47.0761 3.75589 44.3667V8.60739C3.75589 5.89808 5.89796 3.75601 8.60727 3.75601ZM25.5357 10.8399C22.0515 10.8399 19.0689 12.7945 17.6425 16.0141C16.216 19.2337 16.2263 23.6086 18.0582 28.7147C19.8701 33.765 20.8264 36.8766 21.8287 38.9358C22.8003 41.0142 24.2063 42.1318 26.2742 42.1318C29.4076 42.1318 30.4574 39.4073 31.1256 36.8378C31.6513 35.163 29.0601 34.4903 28.7048 36.2094C28.3537 38.0778 27.6065 39.6278 26.2742 39.6278C24.9891 39.6281 24.4495 38.7214 24.0833 37.8453C23.2537 36.141 22.2418 32.9545 20.4154 27.8637C18.7372 23.186 18.8555 19.4549 19.9337 17.0215C21.0106 14.5909 22.9255 13.3467 25.526 13.3438C27.4903 13.3675 28.0051 14.0083 28.8442 14.9699C28.9683 15.1122 29.1091 15.274 29.2427 15.4296C28.9102 15.4402 28.5511 15.4561 28.3918 15.4321C26.6231 15.2825 26.3523 17.9018 28.1886 17.9018C30.8961 18.0372 34.0728 17.83 35.8498 16.5423C36.5323 16.0355 36.983 15.4508 37.4025 14.97C38.2388 14.0116 38.7628 13.3821 40.711 13.3537C43.3085 13.3584 45.2345 14.5928 46.3106 17.0216C47.3887 19.455 47.4997 23.1861 45.8215 27.8638C43.9951 32.9546 42.9906 36.141 42.161 37.8453C41.6537 38.9526 41.0573 39.6279 39.9701 39.6279C38.1321 39.6279 37.8586 37.4359 37.4857 35.9869C36.941 33.512 35.8696 30.4509 33.1234 30.4509C31.4162 30.4125 31.4162 32.9931 33.1234 32.9548C34.595 33.0534 34.7122 35.2654 35.0551 36.6056C35.6737 39.309 37.2517 42.0741 39.9701 42.1318C42.2251 42.1318 43.5435 40.693 44.4082 38.9359C45.4106 36.8767 46.3669 33.7651 48.1788 28.7147C50.0106 23.6087 50.0209 19.2337 48.5945 16.0141C47.168 12.7945 44.1855 10.84 40.7012 10.84C38.5125 10.84 36.783 11.9001 35.5173 13.3268C34.7911 14.1578 34.0499 14.9162 33.1234 14.9162C31.9553 14.8792 31.3638 14.0395 30.7295 13.3268C29.8015 12.2632 28.2399 10.8732 25.5529 10.84C25.5471 10.8399 25.5415 10.8399 25.5357 10.8399ZM68.3252 19.7211C66.7593 19.7211 66.8796 22.2078 68.4548 22.2177H71.5236C74.2329 22.2177 76.375 24.3597 76.375 27.069V62.8357C76.375 65.545 74.2329 67.6871 71.5236 67.6871H69.7019C69.0105 67.6845 68.4478 68.2428 68.445 68.9342V74.3137C68.445 77.1727 65.3524 76.7979 64.1291 75.2185L57.9842 68.1101C57.7457 67.8388 57.4016 67.6837 57.0404 67.6847H22.4939C19.7845 67.6847 17.6425 65.5426 17.6425 62.8333C17.6803 61.1266 15.1007 61.1266 15.1385 62.8333C15.1385 66.8865 18.4407 70.191 22.4939 70.191H56.4682L62.217 76.825C65.5076 80.417 70.949 78.8757 70.949 74.3113V70.191H71.5236C75.5768 70.191 78.8789 66.8865 78.8789 62.8333V27.0666C78.8789 23.0134 75.5768 19.7211 71.5236 19.7211C70.464 19.721 69.374 19.7211 68.3252 19.7211Z" fill="#044BA8"/>
</svg>
