<svg width="80" height="80" viewBox="0 0 80 80" fill="none" xmlns="http://www.w3.org/2000/svg">
<path d="M40.0629 1.23468C22.2578 1.23468 7.8003 14.1943 7.80029 31.8215C7.80029 40.8577 13.7262 52.1736 20.5816 61.4375C24.2529 66.5464 33.4422 78.1168 40.0629 78.1168C44.5242 78.1168 48.9921 73.3633 52.1254 70.1572C53.3071 68.9675 51.4818 67.2242 50.3232 68.4361C47.2101 71.4414 43.5157 75.6379 40.0629 75.6379C35.0683 75.6379 26.9771 65.8366 22.6063 59.9729C15.9285 50.949 10.3042 39.7425 10.3042 31.8215C10.3042 15.534 23.611 3.716 40.0629 3.716C56.5149 3.716 69.8217 15.534 69.8216 31.8215C69.8216 41.2264 61.7916 55.2352 53.6219 64.8049C52.4652 66.0728 54.4638 67.7452 55.534 66.405C63.9437 56.5544 72.328 42.5602 72.328 31.8215C72.328 14.1943 57.8681 1.23468 40.0629 1.23468ZM22.4033 24.3606C20.7863 27.9738 20.7935 32.9143 22.8924 38.7062C24.9811 44.47 26.0836 48.033 27.2254 50.3551C28.3075 52.6602 29.8584 53.8943 32.1794 53.8943C35.2665 53.8943 36.6511 51.3106 37.3927 48.7162C37.7315 47.52 37.9866 46.321 38.3072 45.3852C38.8924 43.7946 36.4449 42.9736 35.9329 44.5888C35.5408 45.7332 35.2898 46.9601 34.9817 48.0481C34.5435 49.9769 33.6226 51.4154 32.1794 51.4154C30.6211 51.4128 30.0579 50.2568 29.4823 49.2657C28.5134 47.295 27.3528 43.6773 25.2496 37.8735C23.3044 32.5056 23.4258 28.2026 24.6945 25.3676C27.1547 20.2762 32.8813 19.5739 35.4194 23.1429C35.138 23.1249 34.8309 23.1135 34.5831 23.0872C33.0916 22.9663 32.7617 25.3543 34.3141 25.5589C37.3375 25.8362 41.1626 26.2132 43.095 24.7455C43.8549 24.1868 44.364 23.5306 44.8507 22.9783C48.1965 19.4169 53.7527 21.7898 55.4338 25.3676C56.7025 28.2026 56.824 32.5056 54.8787 37.8735C52.7755 43.6773 51.615 47.295 50.646 49.2658C50.037 50.7456 49.1549 51.4154 47.9464 51.4154C45.7336 51.4154 45.362 48.8675 44.907 47.1161C44.3009 44.3795 42.9056 41.0181 40.0629 40.9479C38.3557 40.9099 38.3557 43.4647 40.0629 43.4268C41.8942 43.9424 42.0751 46.1744 42.4764 47.7285C43.1534 50.7335 44.9111 53.8318 47.9464 53.8943C50.4294 53.8943 51.9388 52.2892 52.9005 50.3551C54.0423 48.033 55.1472 44.47 57.2359 38.7062C59.3349 32.9143 59.176 28.1655 57.725 24.3606C55.8481 19.4594 47.4076 15.6909 42.9655 21.3491C40.9251 24.0286 39.0935 23.7348 37.1604 21.3491C32.6949 16.0295 25.3388 18.1531 22.4033 24.3606Z" fill="#044BA8"/>
</svg>
