<svg width="21" height="21" viewBox="0 0 21 21" fill="none" xmlns="http://www.w3.org/2000/svg">
<path fill-rule="evenodd" clip-rule="evenodd" d="M19.5 18.25C18.8097 18.25 18.25 17.6903 18.25 17V3.25H4.5C3.80975 3.25 3.25 2.69025 3.25 2C3.25 1.30975 3.80975 0.75 4.5 0.75H19.5C20.1903 0.75 20.75 1.30975 20.75 2V17C20.75 17.6903 20.1903 18.25 19.5 18.25Z" fill="#044BA8"/>
<path fill-rule="evenodd" clip-rule="evenodd" d="M1.116 20.384C0.628002 19.8957 0.628002 19.1043 1.116 18.616L18.616 1.116C19.1043 0.628002 19.8957 0.628002 20.384 1.116C20.872 1.60425 20.872 2.39575 20.384 2.884L2.884 20.384C2.39575 20.872 1.60425 20.872 1.116 20.384Z" fill="#044BA8"/>
</svg>
