<svg width="39" height="43" viewBox="0 0 39 43" fill="none" xmlns="http://www.w3.org/2000/svg">
<path d="M3.67489 0C1.64982 0 0 1.83075 0 4.07786V23.9032C0 26.1504 1.64982 27.9811 3.67489 27.9811H3.95955V30.2708C3.95955 33.2319 6.98006 33.4168 8.32471 31.6645L11.1969 27.9811H28.1713C30.1964 27.9811 31.8462 26.1504 31.8462 23.9032V4.07786C31.8462 1.83075 30.1964 0 28.1713 0H3.67489ZM3.67489 1.38821H28.1713C29.525 1.38821 30.5952 2.57579 30.5952 4.07786V23.9032C30.5952 25.4053 29.525 26.5929 28.1713 26.5929H10.9111C10.7296 26.593 10.557 26.6805 10.4383 26.8328L7.36812 30.7711C6.55232 31.7724 5.21058 31.8299 5.21058 30.2722V27.2883C5.21122 26.9045 4.93099 26.5929 4.58507 26.5929H3.67489C2.32126 26.5929 1.25103 25.4053 1.25103 23.9032V4.07786C1.25103 2.57579 2.32126 1.38821 3.67489 1.38821ZM12.1328 5.31559C10.392 5.31559 8.90179 6.39922 8.1891 8.1842C7.47641 9.96918 7.48155 12.3947 8.39679 15.2256C9.30206 18.0255 9.77986 19.7506 10.2807 20.8923C10.7661 22.0445 11.4686 22.6641 12.5017 22.6641C14.0672 22.6641 14.5918 21.1537 14.9256 19.7291C15.1882 18.8006 13.8936 18.4277 13.7161 19.3807C13.5407 20.4166 13.1674 21.2759 12.5017 21.2759C11.8597 21.2761 11.59 20.7734 11.4071 20.2876C10.9926 19.3428 10.487 17.5762 9.57452 14.7538C8.73606 12.1604 8.79518 10.0919 9.33384 8.74274C9.87189 7.39518 10.8286 6.7054 12.1279 6.7038C13.1093 6.71692 13.3665 7.07218 13.7857 7.60533C13.8478 7.68421 13.9181 7.77391 13.9849 7.86019C13.8188 7.86602 13.6393 7.87488 13.5597 7.86158C12.676 7.7786 12.5408 9.23081 13.4582 9.23081C14.8109 9.30588 16.3981 9.19095 17.2859 8.47705C17.6269 8.19611 17.8521 7.87192 18.0617 7.60536C18.4795 7.07399 18.7414 6.72502 19.7147 6.70926C21.0125 6.71189 21.9748 7.39623 22.5124 8.74277C23.0511 10.0919 23.1065 12.1604 22.2681 14.7538C21.3555 17.5762 20.8536 19.3428 20.4392 20.2877C20.1857 20.9016 19.8877 21.276 19.3445 21.276C18.4262 21.276 18.2895 20.0607 18.1033 19.2574C17.8311 17.8852 17.2958 16.1881 15.9237 16.1881C15.0708 16.1669 15.0708 17.5976 15.9237 17.5763C16.659 17.631 16.7176 18.8574 16.8889 19.6003C17.1979 21.0991 17.9864 22.6322 19.3445 22.6642C20.4712 22.6642 21.1299 21.8665 21.5619 20.8923C22.0627 19.7507 22.5405 18.0256 23.4458 15.2256C24.361 12.3947 24.3662 9.96921 23.6535 8.18423C22.9408 6.39925 21.4506 5.31562 19.7098 5.31562C18.6163 5.31562 17.7522 5.90338 17.1198 6.69434C16.757 7.15509 16.3867 7.57553 15.9237 7.57553C15.3401 7.555 15.0446 7.08948 14.7277 6.69434C14.264 6.10471 13.4838 5.33407 12.1413 5.31562C12.1385 5.3156 12.1356 5.31557 12.1328 5.31559ZM33.5114 10.2394C32.7291 10.2394 32.7892 11.6181 33.5762 11.6235H35.1094C36.4631 11.6235 37.5333 12.8111 37.5333 14.3132V34.1426C37.5333 35.6447 36.4631 36.8323 35.1094 36.8323H34.1992C33.8538 36.8308 33.5727 37.1403 33.5713 37.5237V40.5062C33.5713 42.0912 32.0262 41.8834 31.415 41.0078L28.3448 37.0668C28.2257 36.9164 28.0537 36.8304 27.8732 36.8309H10.613C9.25934 36.8309 8.1891 35.6433 8.1891 34.1413C8.20801 33.195 6.91916 33.195 6.93807 34.1413C6.93807 36.3884 8.58789 38.2205 10.613 38.2205H27.5874L30.4596 41.8984C32.1037 43.8899 34.8223 43.0354 34.8223 40.5048V38.2205H35.1094C37.1345 38.2205 38.7843 36.3884 38.7843 34.1413V14.3118C38.7843 12.0647 37.1345 10.2394 35.1094 10.2394C34.58 10.2394 34.0355 10.2394 33.5114 10.2394Z" fill="white"/>
</svg>
