<svg width="80" height="80" viewBox="0 0 80 80" fill="none" xmlns="http://www.w3.org/2000/svg">
<g clip-path="url(#clip0_90_780)">
<path d="M56.4187 17.0912C56.8994 16.3499 56.6803 15.3638 55.93 14.8893C51.1769 11.8831 45.6686 10.2939 40.0003 10.2939C23.6896 10.2939 10.4194 23.4039 10.4194 39.5183C10.4194 55.6328 23.6895 68.7428 40.0003 68.7428C56.3111 68.7428 69.5811 55.6328 69.5808 39.5185C69.5808 32.9305 67.415 26.7114 63.3172 21.5332C62.7688 20.84 61.7547 20.7173 61.0525 21.2592C60.3503 21.8014 60.2263 22.8031 60.7752 23.4968C64.4249 28.1087 66.3539 33.6488 66.3539 39.5182C66.3539 53.8747 54.5317 65.5545 40.0001 65.5545C25.4685 65.5545 13.6465 53.8745 13.6465 39.518C13.6465 25.1615 25.4687 13.4819 40.0003 13.4819C45.0508 13.4819 49.9573 14.897 54.19 17.5742C54.9397 18.0487 55.9381 17.8326 56.4187 17.0912Z" fill="#044BA8"/>
<path d="M78.1859 39.5179C78.1859 37.6854 78.6347 35.6556 79.0686 33.6928C79.8308 30.2445 80.6189 26.6788 79.2633 23.4491C77.85 20.082 74.6762 18.0935 71.6067 16.1705C69.8697 15.0821 68.2289 14.0543 67.0014 12.8414C65.774 11.6287 64.7334 10.0078 63.632 8.29157C61.6854 5.25933 59.6726 2.12365 56.2648 0.727398C52.9954 -0.611588 49.3865 0.166888 45.896 0.919894C43.9093 1.34857 41.8549 1.79176 40.0001 1.79176C38.1452 1.79176 36.0908 1.34857 34.1041 0.919894C30.6139 0.166888 27.0046 -0.611743 23.7353 0.727398C20.3272 2.1235 18.3147 5.25917 16.3681 8.29157C15.2667 10.0077 14.2261 11.6287 12.9988 12.8414C11.7713 14.054 10.1303 15.0821 8.39343 16.1702C5.3239 18.0933 2.14998 20.082 0.736699 23.4491C-0.618772 26.6786 0.169198 30.2442 0.931387 33.6925C1.36529 35.6553 1.81404 37.685 1.81404 39.5175C1.81404 41.35 1.36529 43.3798 0.931387 45.3426C0.169198 48.7909 -0.618929 52.3566 0.736699 55.5863C2.15014 58.9535 5.32405 60.9421 8.39343 62.8652L9.0139 63.2548C9.76515 63.7281 10.7627 63.5105 11.2419 62.7683C11.7214 62.0261 11.5009 61.0406 10.7497 60.567L10.1217 60.1727C7.35406 58.4389 4.73999 56.801 3.71749 54.3653C2.74998 52.0596 3.39827 49.1274 4.08436 46.0231C4.55468 43.895 5.04108 41.6943 5.04108 39.5175C5.04108 37.341 4.55483 35.1403 4.08436 33.012C3.39827 29.9077 2.75014 26.9755 3.71749 24.67C4.73999 22.2341 7.35406 20.5962 10.1216 18.8624C11.9305 17.7293 13.8005 16.5573 15.2805 15.0955C16.7602 13.6336 17.9464 11.7858 19.0935 9.99872C20.8483 7.26456 22.5061 4.6823 24.9716 3.67227C27.3052 2.71612 30.2733 3.35643 33.4158 4.03442C35.5697 4.49906 37.7972 4.97961 40.0002 4.97961C42.2032 4.97961 44.4304 4.49922 46.5846 4.03442C49.7271 3.35643 52.6954 2.71596 55.0288 3.67227C57.4943 4.6823 59.1518 7.26456 60.907 9.99872C62.054 11.7858 63.2403 13.6336 64.72 15.0955C66.1996 16.5573 68.0703 17.7293 69.8789 18.8625C72.6465 20.5964 75.2604 22.2342 76.2829 24.67C77.2504 26.9756 76.6022 29.9078 75.9162 33.0122C75.4459 35.1403 74.9595 37.341 74.9595 39.5177C74.9595 41.6944 75.4458 43.895 75.9162 46.0232C76.6023 49.1276 77.2504 52.0598 76.2829 54.3653C75.2604 56.8012 72.6464 58.439 69.8789 60.1729C68.07 61.3059 66.2 62.4779 64.72 63.9398C63.2403 65.4016 62.054 67.2494 60.907 69.0365C59.1521 71.7707 57.4943 74.353 55.0288 75.363C52.6952 76.319 49.7271 75.6788 46.5846 75.0008C44.4307 74.5362 42.2032 74.0556 40.0002 74.0556C37.7972 74.0556 35.57 74.536 33.4158 75.0008C30.2733 75.6788 27.3057 76.3193 24.9716 75.3633C22.5061 74.3533 20.8486 71.7707 19.0935 69.0368C18.6338 68.3207 18.1585 67.5805 17.6678 66.8709C17.1649 66.144 16.1606 65.9577 15.4253 66.4543C14.6895 66.951 14.5006 67.9428 15.0034 68.6697C15.4631 69.3341 15.903 70.0189 16.3683 70.7441C18.3149 73.7764 20.3275 76.9121 23.7355 78.3083C25.0278 78.8375 26.3725 79.036 27.7425 79.036C29.8388 79.036 31.9935 78.5712 34.1043 78.1155C36.091 77.6868 38.1454 77.2436 40.0002 77.2436C41.8551 77.2436 43.9094 77.6868 45.8962 78.1155C49.3865 78.8685 52.9956 79.6471 56.2649 78.308C59.6731 76.9118 61.6856 73.7762 63.6321 70.7438C64.7335 69.0277 65.7742 67.4067 67.0015 66.194C68.229 64.9814 69.8698 63.9533 71.6068 62.8652C74.6764 60.9421 77.8501 58.9534 79.2634 55.5863C80.6189 52.3568 79.8309 48.7912 79.0687 45.3429C78.6347 43.3801 78.1859 41.3504 78.1859 39.5179Z" fill="#044BA8"/>
<path d="M25.951 53.3978C26.2662 53.7092 26.6793 53.8648 27.0921 53.8648C27.5049 53.8648 27.9181 53.709 28.2329 53.3978L54.0489 27.8928C54.679 27.2706 54.679 26.2612 54.0489 25.6386C53.4187 25.0161 52.3973 25.0161 51.767 25.6386L25.951 51.1436C25.321 51.7658 25.321 52.7752 25.951 53.3978Z" fill="#044BA8"/>
<path d="M31.3946 36.8615C34.6567 36.8615 37.3107 34.2395 37.3107 31.0166C37.3107 27.7938 34.6567 25.1718 31.3946 25.1718C28.1326 25.1718 25.4785 27.7938 25.4785 31.0166C25.4785 34.2395 28.1326 36.8615 31.3946 36.8615ZM31.3946 28.3598C32.8773 28.3598 34.0838 29.5515 34.0838 31.0166C34.0838 32.4817 32.8776 33.6735 31.3946 33.6735C29.9117 33.6735 28.7054 32.4817 28.7054 31.0166C28.7056 29.5515 29.9118 28.3598 31.3946 28.3598Z" fill="#044BA8"/>
<path d="M48.6056 53.8648C51.8676 53.8648 54.5217 51.2429 54.5217 48.02C54.5217 44.797 51.8676 42.1752 48.6056 42.1752C45.3435 42.1752 42.6895 44.7971 42.6895 48.02C42.6895 51.2429 45.3435 53.8648 48.6056 53.8648ZM48.6056 45.3632C50.0882 45.3632 51.2948 46.5549 51.2948 48.02C51.2948 49.4851 50.0885 50.6768 48.6056 50.6768C47.1226 50.6768 45.9163 49.4851 45.9163 48.02C45.9163 46.5549 47.1226 45.3632 48.6056 45.3632Z" fill="#044BA8"/>
</g>
<defs>
<clipPath id="clip0_90_780">
<rect width="80" height="79.0361" fill="white"/>
</clipPath>
</defs>
</svg>
