<svg width="80" height="80" viewBox="0 0 80 80" fill="none" xmlns="http://www.w3.org/2000/svg">
<path d="M15.1776 6.97197H13.7667C8.67311 6.97197 4.53587 11.0679 4.53587 16.1105V22.9977C4.30189 23.7396 4.74183 24.7024 5.79273 24.6486H73.0812V68.9396C73.0812 72.6518 70.104 75.6113 66.3543 75.6113H13.7667C10.017 75.6113 7.03981 72.6518 7.03981 68.9396V28.9746C7.03981 27.3216 4.53587 27.3216 4.53587 28.9746V68.9396C4.53587 73.9822 8.67312 78.0902 13.7667 78.0902H66.3543C71.4478 78.0902 75.5875 73.9822 75.5875 68.9396V16.1105C75.5875 11.0679 71.4478 6.97197 66.3543 6.97197H65.1072C62.1875 -0.952951 51.483 -0.00384164 49.372 6.97197H30.9103C28.7246 -0.695959 17.0856 -0.390411 15.1776 6.97197ZM22.8215 3.72084C25.4399 3.72084 27.1562 4.74697 28.2181 6.97197H17.86C18.7705 5.05638 20.6791 3.79605 22.8215 3.72084ZM57.0159 3.72084C60.1641 3.73434 61.7896 5.21691 62.415 6.97197H52.0544C52.9649 5.05638 54.8735 3.79605 57.0159 3.72084ZM13.7667 9.45087H28.761C28.761 12.6133 25.4782 15.027 23.0465 15.0962C21.3393 15.0582 21.3393 17.613 23.0465 17.5751C28.0188 17.5751 31.2796 13.2104 31.2796 9.45087H62.9554C62.9554 12.8007 59.6644 15.027 57.2311 15.0962C55.5239 15.0582 55.5239 17.613 57.2311 17.5751C62.0753 17.5751 65.4741 13.5933 65.4741 9.45087H66.3543C70.104 9.45087 73.0812 12.3983 73.0812 16.1105V22.1673H7.03981V16.1105C7.03981 12.3983 10.017 9.45087 13.7667 9.45087ZM22.4082 36.7986C20.7912 40.4118 20.791 45.3524 22.8899 51.1443C24.9786 56.908 26.0812 60.4686 27.2229 62.7907C28.3049 65.0972 29.89 66.3324 32.177 66.3324C36.1444 66.3324 37.017 62.6326 37.8231 59.4985C38.2359 57.8942 35.8053 57.2818 35.3925 58.886C34.9102 61.3307 34.0727 63.8535 32.177 63.8535C30.6186 63.8509 30.0554 62.6949 29.4799 61.7038C28.5109 59.7331 27.3504 56.1057 25.2471 50.3018C23.3019 44.934 23.4234 40.6406 24.6921 37.8057C26.4999 33.784 32.0255 31.7397 35.2727 35.4164C35.5448 35.7252 35.8293 36.0658 36.1554 36.404C35.8905 36.4251 35.6162 36.4666 35.3656 36.4694C33.6957 36.4881 33.7226 38.9664 35.3925 38.9483C38.3382 38.9483 41.1751 38.5396 43.0926 37.1835C43.8524 36.6249 44.3713 35.9687 44.858 35.4164C48.1998 31.8518 53.7492 34.2297 55.4288 37.8057C56.6975 40.6406 56.8215 44.934 54.8762 50.3018C52.773 56.1057 51.6125 59.7331 50.6435 61.7038C50.0087 63.0017 49.2722 63.8535 47.9537 63.8535C45.8097 63.8535 45.3607 61.3077 44.9045 59.5517C44.2982 56.8159 43.3675 53.386 40.0604 53.386C38.3907 53.386 38.3907 55.8648 40.0604 55.8648C41.8727 55.8648 42.0726 58.6125 42.4739 60.1666C43.151 63.1756 44.9121 66.2698 47.9537 66.3324C50.4722 66.2339 51.9376 64.7223 52.898 62.7907C54.0398 60.4686 55.1423 56.908 57.231 51.1443C59.3299 45.3524 59.3395 40.4118 57.7225 36.7986C56.1055 33.1854 52.7522 31.0057 48.8047 31.0057C45.4423 31.0057 43.3913 33.4235 41.6034 35.1888C40.5927 35.9534 39.4293 36.0509 38.5273 35.1888C36.3904 32.9832 33.7837 31.0808 31.3456 31.0057C26.7473 31.0057 23.7664 33.9258 22.4082 36.7986Z" fill="#044BA8"/>
</svg>
