<svg width="119" height="119" viewBox="0 0 119 119" fill="none" xmlns="http://www.w3.org/2000/svg">
<circle cx="59.8824" cy="59.8824" r="49.8824" fill="#F6F6F6"/>
<path fill-rule="evenodd" clip-rule="evenodd" d="M114.24 59.5C114.24 29.268 89.732 4.76 59.5 4.76C29.2678 4.76 4.75999 29.268 4.75999 59.5C4.75999 89.7322 29.2678 114.24 59.5 114.24C89.732 114.24 114.24 89.7322 114.24 59.5ZM59.5 0C92.3609 0 119 26.6391 119 59.5C119 92.3611 92.3609 119 59.5 119C26.6389 119 -7.62939e-06 92.3611 -7.62939e-06 59.5C-7.62939e-06 26.6391 26.6389 0 59.5 0Z" fill="#F6F6F6"/>
<path fill-rule="evenodd" clip-rule="evenodd" d="M74 60C74 60.5668 73.7592 61.1072 73.338 61.4868L53.338 79.4868C52.5168 80.2256 51.2524 80.1588 50.5136 79.338C49.7744 78.5168 49.8412 77.2524 50.662 76.5136L69.0104 60L50.662 43.4868C49.8412 42.7476 49.7744 41.4832 50.5136 40.662C51.2524 39.8412 52.5168 39.7744 53.338 40.5136L73.338 58.5136C73.7592 58.8928 74 59.4332 74 60Z" fill="#044BA8"/>
</svg>
